<?xml version="1.0" encoding="utf-8"?>
<!-- Generator: Adobe Illustrator 16.0.4, SVG Export Plug-In . SVG Version: 6.00 Build 0)  -->
<!DOCTYPE svg PUBLIC "-//W3C//DTD SVG 1.1//EN" "http://www.w3.org/Graphics/SVG/1.1/DTD/svg11.dtd">
<svg version="1.1" id="Layer_1" xmlns="http://www.w3.org/2000/svg" xmlns:xlink="http://www.w3.org/1999/xlink" x="0px" y="0px"
	 width="11px" height="12px" viewBox="-75.727 157.066 11 12" enable-background="new -75.727 157.066 11 12" xml:space="preserve">
<g>
	<path fill="#285AA6" d="M-70.708,158.066c0.102,0,0.206,0.004,0.309,0.012c2.212,0.167,3.877,2.104,3.71,4.316
		c-0.045,0.598-0.229,1.175-0.547,1.717l-0.239,0.408l0.164,0.444l0.792,2.14l-2.322-1.106l-0.348-0.166l-0.369,0.11
		c-0.386,0.115-0.775,0.174-1.159,0.174c-0.095,0-0.191-0.004-0.288-0.011c-2.212-0.167-3.877-2.104-3.71-4.316
		C-74.557,159.701-72.796,158.066-70.708,158.066 M-70.708,157.066c-2.603,0-4.805,2.007-5.004,4.646
		c-0.209,2.769,1.864,5.18,4.632,5.389c0.122,0.01,0.243,0.014,0.363,0.014c0.5,0,0.985-0.078,1.445-0.216l4.545,2.167l-1.646-4.449
		c0.374-0.638,0.622-1.36,0.682-2.147c0.209-2.769-1.864-5.18-4.632-5.389C-70.452,157.071-70.58,157.066-70.708,157.066
		L-70.708,157.066z"/>
</g>
</svg>
