<?xml version="1.0" encoding="utf-8"?>
<!-- Generator: Adobe Illustrator 16.0.4, SVG Export Plug-In . SVG Version: 6.00 Build 0)  -->
<!DOCTYPE svg PUBLIC "-//W3C//DTD SVG 1.1//EN" "http://www.w3.org/Graphics/SVG/1.1/DTD/svg11.dtd">
<svg version="1.1" id="Layer_1" xmlns="http://www.w3.org/2000/svg" xmlns:xlink="http://www.w3.org/1999/xlink" x="0px" y="0px"
	 width="250px" height="250px" viewBox="0 0 250 250" enable-background="new 0 0 250 250" xml:space="preserve">
<g>
	<path fill="#285AA6" d="M-12.164,104.927v12.176h-0.941h-2v2v0.993l-4.461-2.704l-0.478-0.289h-0.559h-12.561v-12.175
		L-12.164,104.927 M-10.164,102.927l-25,0.001v16.175h14.561l7.498,4.544v-4.544h2.941V102.927L-10.164,102.927z"/>
</g>
<g>
	<path fill="#285AA6" d="M-51.131,104.927v16.062h-1.197h-2v2v1.389l-5.114-3.099l-0.478-0.29h-0.559h-11.653v-16.061
		L-51.131,104.927 M-49.131,102.927l-25,0.001v20.061h13.653l8.15,4.939v-4.939h3.197V102.927L-49.131,102.927z"/>
</g>
<g>
	<path fill="#285AA6" d="M-84.707,132.061v5.529h-0.598h-1v1v0.693l-2.556-1.549l-0.239-0.145h-0.279h-3.329v-5.529H-84.707
		 M-83.707,131.061h-10v7.529h4.329l4.074,2.469v-2.469h1.598V131.061L-83.707,131.061z"/>
</g>
<g>
	<path fill="#285AA6" d="M-70.708,158.066c0.102,0,0.206,0.004,0.309,0.012c2.212,0.167,3.877,2.104,3.71,4.316
		c-0.045,0.598-0.229,1.175-0.547,1.717l-0.239,0.408l0.164,0.444l0.792,2.14l-2.322-1.106l-0.348-0.166l-0.369,0.11
		c-0.386,0.115-0.775,0.174-1.159,0.174c-0.095,0-0.191-0.004-0.288-0.011c-2.212-0.167-3.877-2.104-3.71-4.316
		C-74.557,159.701-72.796,158.066-70.708,158.066 M-70.708,157.066c-2.603,0-4.805,2.007-5.004,4.646
		c-0.209,2.769,1.864,5.18,4.632,5.389c0.122,0.01,0.243,0.014,0.363,0.014c0.5,0,0.985-0.078,1.445-0.216l4.545,2.167l-1.646-4.449
		c0.374-0.638,0.622-1.36,0.682-2.147c0.209-2.769-1.864-5.18-4.632-5.389C-70.452,157.071-70.58,157.066-70.708,157.066
		L-70.708,157.066z"/>
</g>
<g>
	<path fill="#285AA6" d="M-125.107,161.191c3.925,0,7.119,3.193,7.119,7.119c0,1.239-0.33,2.466-0.954,3.549l-0.265,0.46
		l0.232,0.477l1.742,3.576l-4.248-1.575l-0.381-0.142l-0.372,0.165c-0.914,0.404-1.881,0.609-2.875,0.609
		c-3.925,0-7.119-3.193-7.119-7.119S-129.033,161.191-125.107,161.191 M-125.107,160.191c-4.485,0-8.119,3.633-8.119,8.119
		c0,4.485,3.634,8.119,8.119,8.119c1.168,0,2.275-0.251,3.279-0.695l6.587,2.442l-2.834-5.818c0.688-1.193,1.087-2.572,1.087-4.048
		C-116.989,163.824-120.623,160.191-125.107,160.191L-125.107,160.191z"/>
</g>
<polygon fill="none" stroke="#285AA6" stroke-linecap="square" stroke-miterlimit="10" points="-123.797,175.038 -113.836,180.374 
	-118.384,170.657 "/>
<g>
	<path fill="#FFFFFF" d="M133.661,78.042v38.492h36.882v16.415h-36.882v39.01h-17.307v-39.01H79.457v-16.415h36.897V78.042H133.661z
		"/>
</g>
</svg>
