<?xml version="1.0" encoding="utf-8"?>
<!-- Generator: Adobe Illustrator 16.0.4, SVG Export Plug-In . SVG Version: 6.00 Build 0)  -->
<!DOCTYPE svg PUBLIC "-//W3C//DTD SVG 1.1//EN" "http://www.w3.org/Graphics/SVG/1.1/DTD/svg11.dtd">
<svg version="1.1" id="Layer_1" xmlns="http://www.w3.org/2000/svg" xmlns:xlink="http://www.w3.org/1999/xlink" x="0px" y="0px"
	 width="250px" height="250px" viewBox="0 0 250 250" enable-background="new 0 0 250 250" xml:space="preserve">
<g>
	<path opacity="0.9" fill="#285AA6" d="M125,219.818c-52.283,0-94.819-42.535-94.819-94.818S72.717,30.182,125,30.182
		S219.818,72.717,219.818,125S177.283,219.818,125,219.818z M125,45.378c-43.904,0-79.623,35.718-79.623,79.622
		S81.096,204.622,125,204.622c43.903,0,79.622-35.719,79.622-79.622S168.903,45.378,125,45.378z"/>
	<g>
		<path fill="#FFFFFF" d="M134.019,76.094v40.088h38.411v17.095h-38.411v40.627h-18.024v-40.627H77.568v-17.095h38.427V76.094
			H134.019z"/>
	</g>
</g>
</svg>
