<?xml version="1.0" encoding="utf-8"?>
<!-- Generator: Adobe Illustrator 16.0.0, SVG Export Plug-In . SVG Version: 6.00 Build 0)  -->
<!DOCTYPE svg PUBLIC "-//W3C//DTD SVG 1.1//EN" "http://www.w3.org/Graphics/SVG/1.1/DTD/svg11.dtd">
<svg version="1.1" id="Layer_1" xmlns="http://www.w3.org/2000/svg" xmlns:xlink="http://www.w3.org/1999/xlink" x="0px" y="0px"
	 width="250px" height="250px" viewBox="0 0 250 250" enable-background="new 0 0 250 250" xml:space="preserve">
<g>
	<path fill="#FFFFFF" d="M173.064,120.5H129.5V76.936c0-2.486-2.015-4.5-4.5-4.5s-4.5,2.014-4.5,4.5V120.5H76.935
		c-2.486,0-4.5,2.015-4.5,4.5s2.014,4.5,4.5,4.5H120.5v43.566c0,2.485,2.015,4.5,4.5,4.5s4.5-2.015,4.5-4.5V129.5h43.564
		c2.485,0,4.5-2.015,4.5-4.5S175.55,120.5,173.064,120.5z"/>
	<path fill="#FFFFFF" d="M125,30.182c-52.283,0-94.819,42.535-94.819,94.818S72.717,219.818,125,219.818
		s94.818-42.535,94.818-94.818S177.283,30.182,125,30.182z M125,210.818c-47.321,0-85.819-38.498-85.819-85.818
		S77.679,39.182,125,39.182c47.32,0,85.818,38.498,85.818,85.818S172.32,210.818,125,210.818z"/>
</g>
</svg>
