<?xml version="1.0" encoding="utf-8"?>
<!-- Generator: Adobe Illustrator 16.0.4, SVG Export Plug-In . SVG Version: 6.00 Build 0)  -->
<!DOCTYPE svg PUBLIC "-//W3C//DTD SVG 1.1//EN" "http://www.w3.org/Graphics/SVG/1.1/DTD/svg11.dtd">
<svg version="1.1" id="Layer_1" xmlns="http://www.w3.org/2000/svg" xmlns:xlink="http://www.w3.org/1999/xlink" x="0px" y="0px"
	 width="24px" height="31.995px" viewBox="-93.707 -3 24 31.995" enable-background="new -93.707 -3 24 31.995"
	 xml:space="preserve">
<circle fill="#FF8939" cx="-81.738" cy="8.969" r="11.969"/>
<polygon fill="#FF8939" points="-87.953,17 -81.738,28.995 -75.525,17 "/>
<g>
	<path fill="#FFFFFF" d="M-87.021,8.914c0-1.628,0.455-2.963,1.363-4.002c0.909-1.04,2.167-1.56,3.776-1.56
		c0.336,0,0.661,0.027,0.974,0.081c0.313,0.054,0.617,0.128,0.914,0.222l0.707-1.444h1.625l-1.04,2.13
		c0.639,0.499,1.13,1.143,1.474,1.934c0.343,0.791,0.515,1.671,0.515,2.64v0.212c0,1.642-0.456,2.98-1.368,4.013
		c-0.912,1.034-2.172,1.55-3.781,1.55c-0.323,0-0.633-0.024-0.929-0.071c-0.296-0.047-0.579-0.111-0.848-0.192l-0.717,1.474h-1.625
		l1.04-2.13c-0.68-0.478-1.196-1.119-1.549-1.923c-0.354-0.804-0.53-1.711-0.53-2.721V8.914z M-84.083,9.12
		c0,0.417,0.028,0.799,0.085,1.148c0.057,0.35,0.146,0.638,0.268,0.867l0.061,0.01l2.625-5.351
		c-0.128-0.054-0.261-0.096-0.399-0.126c-0.138-0.03-0.284-0.045-0.439-0.045c-0.761,0-1.317,0.308-1.671,0.923
		c-0.353,0.614-0.53,1.402-0.53,2.362V9.12z M-79.662,8.911c0-0.362-0.027-0.706-0.081-1.027c-0.054-0.323-0.128-0.598-0.222-0.827
		l-0.061-0.01l-2.574,5.25c0.101,0.047,0.213,0.08,0.338,0.096c0.124,0.017,0.257,0.025,0.398,0.025c0.76,0,1.318-0.302,1.671-0.907
		c0.354-0.604,0.53-1.401,0.53-2.388V8.911z"/>
</g>
<path fill="#FF8939" d="M-73.13,17.282h-8.738V24h2.681C-79.187,24-78.343,20.902-73.13,17.282z"/>
<path fill="#FF8939" d="M-90.256,17.282h8.738V24h-2.681C-84.199,24-85.042,20.902-90.256,17.282z"/>
</svg>
